# xmcd
#
# Track frame offsets:
#	150
#	18035
#	32880
#	49495
#	69167
#	85450
#	100497
#	115797
#	133440
#
# Disc length: 1968 seconds
#
# Revision: 1
# Processed by: cddbd v1.5.2PL0 Copyright (c) Steve Scherf et al.
# Submitted via: EasyCDDAExtractor 15.3.0.1
#
DISCID=7b07ae09
DTITLE=Pandora - Exitos Del Recuerdo
DYEAR=1995
DGENRE=Latin
TTITLE0=Tarde O Temprano
TTITLE1=Desde El Dia Que Te Fuiste
TTITLE2=Sueños
TTITLE3=Con Tu Amor
TTITLE4=Como Te Va Mi Amor
TTITLE5=Rezo Una Oracion Por Ti
TTITLE6=Para Escribir Tu Nombre
TTITLE7=No Puedo Dejar De Pensar En Ti
TTITLE8=De Mil Maneras
EXTD=
EXTT0=
EXTT1=
EXTT2=
EXTT3=
EXTT4=
EXTT5=
EXTT6=
EXTT7=
EXTT8=
PLAYORDER=
